<svg width="20" height="12" viewBox="0 0 20 12" fill="none" xmlns="http://www.w3.org/2000/svg">
<path d="M18.6025 5.65484C17.996 4.99941 17.3061 4.34336 16.5482 3.73253C14.4207 2.01807 12.1942 1.00033 10 1.00033C7.80578 1.00033 5.57931 2.01807 3.45184 3.73253C2.69386 4.34336 2.00397 4.99941 1.3975 5.65484C1.28633 5.77498 1.18235 5.89042 1.08582 6.00033C1.18235 6.11023 1.28633 6.22567 1.3975 6.34581C2.00397 7.00124 2.69386 7.65729 3.45184 8.26813C5.57931 9.98258 7.80578 11.0003 10 11.0003C12.1942 11.0003 14.4207 9.98258 16.5482 8.26813C17.3061 7.65729 17.996 7.00124 18.6025 6.34581C18.7137 6.22567 18.8176 6.11023 18.9142 6.00033C18.8176 5.89042 18.7137 5.77498 18.6025 5.65484ZM10 11.8337C4.47715 11.8337 0 6.00033 0 6.00033C0 6.00033 4.47715 0.166992 10 0.166992C15.5228 0.166992 20 6.00033 20 6.00033C20 6.00033 15.5228 11.8337 10 11.8337ZM10 9.75033C12.0711 9.75033 13.75 8.07139 13.75 6.00033C13.75 3.92926 12.0711 2.25033 10 2.25033C7.92893 2.25033 6.25 3.92926 6.25 6.00033C6.25 8.07139 7.92893 9.75033 10 9.75033ZM10 8.91699C8.38917 8.91699 7.08333 7.61116 7.08333 6.00033C7.08333 4.38949 8.38917 3.08366 10 3.08366C11.6108 3.08366 12.9167 4.38949 12.9167 6.00033C12.9167 7.61116 11.6108 8.91699 10 8.91699Z" fill="#35363A"/>
</svg>
