<svg xmlns="http://www.w3.org/2000/svg" width="39.708" height="32.669" viewBox="0 0 39.708 32.669">
  <g id="Menu_Burger_Button_favorit_icon_" data-name="Menu Burger Button ( + favorit icon)" transform="translate(-64 -53)">
    <rect id="Прямоугольник_808" data-name="Прямоугольник 808" width="31" height="3" transform="translate(64 53)" fill="#35363a"/>
    <rect id="Прямоугольник_808_копия" data-name="Прямоугольник 808 копия" width="31" height="3" transform="translate(64 64)" fill="#35363a"/>
    <rect id="Прямоугольник_808_копия_2" data-name="Прямоугольник 808 копия 2" width="31" height="3" transform="translate(64 75)" fill="#35363a"/>
    <g id="Favorites_Icons" data-name="Favorites Icons" fill="#f19942">
      <path d="M 95.49234771728516 84.91915130615234 C 95.03593444824219 84.91915130615234 94.60016632080078 84.72422027587891 94.29678344726562 84.38433837890625 L 89.20395660400391 78.69429016113281 C 87.63621520996094 76.92430877685547 87.63617706298828 74.25881958007812 89.20128631591797 72.4912109375 L 89.25431823730469 72.43122863769531 C 90.02616119384766 71.55991363525391 91.13695526123047 71.06050109863281 92.3023681640625 71.06050109863281 C 93.46785736083984 71.06050109863281 94.57850646972656 71.55997467041016 95.34954833984375 72.43083190917969 L 95.49256134033203 72.59209442138672 L 95.63566589355469 72.43060302734375 C 96.40656280517578 71.55995941162109 97.51722717285156 71.06050109863281 98.68268585205078 71.06050109863281 C 99.84807586669922 71.06050109863281 100.9588851928711 71.55991363525391 101.7302932739258 72.4306640625 L 101.7842330932617 72.49168395996094 C 103.3497009277344 74.25875854492188 103.3496780395508 76.92438507080078 101.7835922241211 78.69153594970703 L 96.68838500976562 84.38505554199219 C 96.38389587402344 84.72467041015625 95.94812774658203 84.91915130615234 95.49234771728516 84.91915130615234 Z" stroke="none"/>
      <path d="M 92.30236053466797 71.81049346923828 C 91.38929748535156 71.81049346923828 90.47615814208984 72.18299102783203 89.81621551513672 72.92799377441406 L 89.76278686523438 72.98841094970703 C 88.44578552246094 74.47579956054688 88.44578552246094 76.70718383789062 89.76278686523438 78.19410705566406 L 94.85629272460938 83.88491058349609 C 95.19459533691406 84.26392364501953 95.78971862792969 84.26392364501953 96.1295166015625 83.88491058349609 L 101.2222900390625 78.19410705566406 C 102.5399780273438 76.70718383789062 102.5399780273438 74.47579956054688 101.2222900390625 72.98841094970703 L 101.1689071655273 72.92799377441406 C 99.84889221191406 71.43798065185547 97.51628112792969 71.43799591064453 96.19698333740234 72.92799377441406 L 95.49279022216797 73.72267913818359 L 94.78801727294922 72.92799377441406 C 94.12840270996094 72.18299102783203 93.21542358398438 71.81049346923828 92.30236053466797 71.81049346923828 M 92.3023681640625 70.31049346923828 C 93.48365020751953 70.31049346923828 94.61758422851562 70.74401092529297 95.49248504638672 71.51578521728516 C 96.36721801757812 70.74409484863281 97.50125122070312 70.31049346923828 98.68267059326172 70.31049346923828 C 100.0625991821289 70.31049346923828 101.3780212402344 70.90199279785156 102.2916717529297 71.93329620361328 L 102.3464050292969 71.99526214599609 C 104.1622924804688 74.04499053955078 104.1622085571289 77.13825988769531 102.3449020385742 79.18894958496094 L 102.3400573730469 79.19441223144531 L 97.24729156494141 84.88522338867188 C 96.80020904541016 85.38379669189453 96.16090393066406 85.66914367675781 95.49232482910156 85.66914367675781 C 94.82247924804688 85.66914367675781 94.18275451660156 85.38291168212891 93.73725128173828 84.88379669189453 L 88.63990783691406 79.18864440917969 C 86.82371520996094 77.13814544677734 86.82363891601562 74.04510498046875 88.63974761962891 71.99402618408203 L 88.69244384765625 71.93441009521484 C 89.60697937011719 70.90203094482422 90.92240142822266 70.31049346923828 92.3023681640625 70.31049346923828 Z" stroke="none" fill="#ddd"/>
    </g>
  </g>
</svg>
