<svg xmlns="http://www.w3.org/2000/svg" width="20.488" height="18.001" viewBox="0 0 20.488 18.001">
  <g id="Star_копия_4" data-name="Star копия 4" transform="translate(-918.511 -575.998)" fill="none">
    <path d="M928.756,576l3.167,5.926,7.078.95-5.122,4.613L935.088,594l-6.332-3.075L922.424,594l1.209-6.513-5.122-4.613,7.078-.95Z" stroke="none"/>
    <path d="M 928.7557373046875 578.1199951171875 L 926.2304077148438 582.8469848632812 L 920.7869873046875 583.577392578125 L 924.718505859375 587.1181030273438 L 923.7691040039062 592.2343139648438 L 928.755615234375 589.8123779296875 L 933.7427368164062 592.2343139648438 L 932.7926635742188 587.1181640625 L 936.7243041992188 583.577392578125 L 931.2816772460938 582.8469848632812 L 928.7557373046875 578.1199951171875 M 928.755615234375 575.9979858398438 L 931.9223022460938 581.9240112304688 L 938.9998779296875 582.873779296875 L 933.8781127929688 587.486328125 L 935.0875244140625 593.9990844726562 L 928.755615234375 590.924072265625 L 922.4244995117188 593.9990844726562 L 923.6331176757812 587.486328125 L 918.5114135742188 582.873779296875 L 925.5897216796875 581.9240112304688 L 928.755615234375 575.9979858398438 Z" stroke="none" fill="#fff"/>
  </g>
</svg>
