<svg xmlns="http://www.w3.org/2000/svg" width="29.925" height="31.776" viewBox="0 0 29.925 31.776">
  <g id="Group_2" data-name="Group 2" transform="translate(-1530.405 -885.416)">
    <path id="Favorites_Icons" data-name="Favorites Icons" d="M1554.393,888.4l-.1-.114a6.143,6.143,0,0,0-9.281,0l-1.316,1.506-1.315-1.506a6.142,6.142,0,0,0-9.28,0l-.1.114a7.516,7.516,0,0,0,0,9.863l9.509,10.782a1.581,1.581,0,0,0,2.377,0l9.507-10.782A7.516,7.516,0,0,0,1554.393,888.4Z" fill="none" stroke="#f7f7f7" stroke-width="1.5"/>
    <circle id="Ellipse_3" data-name="Ellipse 3" cx="7" cy="7" r="7" transform="translate(1546 899)" fill="#4f9098"/>
    <text id="_" data-name="+" transform="translate(1547.33 912.192)" fill="#fff" font-size="18" font-family="SegoeUI, Segoe UI"><tspan x="0" y="0">+</tspan></text>
  </g>
</svg>
